# xmcd
#
# Track frame offsets: 
#        150
#        49827
#        106650
#        133700
#        151870
#        195262
#        239600
#        259237
#        283937
#
# Disc length: 4240 seconds
#
# Revision: 0
# Processed by: cddbd v1.5.2PL0 Copyright (c) Steve Scherf et al.
# Submitted via: ExactAudioCopy v1.0b1
#
DISCID=7a108e09
DTITLE=Eugen Jochum - Beethoven Symphonies 6 and 8 ,Japan EMI,CD4
DYEAR=2002
DGENRE=Classical
TTITLE0=Symphony No.6 in F major, op.68 "Pastoral"-I. Allegro ma non t
TTITLE0=roppo
TTITLE1=II. Szene am Bach
TTITLE2=III. Lustiges Zusammensein der Landleute
TTITLE3=IV. Gewitter, Sturm
TTITLE4=V. Hirtengesang: Frohe und dankbare Gefühle nach dem Sturm
TTITLE5=Symphony No.8 in F major, op.93-I. Allegro vivace e con brio
TTITLE6=II. Allegretto scherzando
TTITLE7=III. Tempo di Menuetto
TTITLE8=IV. Allegro Vivace
EXTD=
EXTT0=
EXTT1=
EXTT2=
EXTT3=
EXTT4=
EXTT5=
EXTT6=
EXTT7=
EXTT8=
PLAYORDER=
